# xmcd CD database file
#
# Track frame offsets:
#	150
#	18189
#	33414
#	53034
#	65597
#	81765
#	96845
#	112403
#	130722
#	143516
#	164756
#	184885
#	196157
#	202860
#	214030
#	227700
#	240925
#	252477
#	267291
#	281533
#	295879
#	312750
#	322394
#
# Disc length: 4459 seconds
#
# Revision: 0
# Processed by: cddbd v1.4PL0 Copyright (c) Steve Scherf et al.
# Submitted via: CDex 1.50beta10
#
DISCID=53116917
DTITLE=Bob's Choice - Country and Western
DYEAR=2003
DGENRE=Country
TTITLE0=Alan Jackson - Chattahoochee
TTITLE1=George Strait - All My Ex's Live In Texas
TTITLE2=Garth Brooks - Friends In Low Places
TTITLE3=Patsy Cline - Crazy
TTITLE4=Randy Travis - Forever And Ever, Amen
TTITLE5=Vince Gill - I Will Always Love You (With Dolly Parton)
TTITLE6="Independence Day" by Martina
TTITLE7=Vince Gill - Look at us
TTITLE8=Clint Black - Killin' Time
TTITLE9=Marty Robbins - El Paso
TTITLE10=Jwhn Michael Montgomery - I Swear
TTITLE11=Roger Miller - King of the Road
TTITLE12=Tammy Wynette - Welcome to my world
TTITLE13=Tammy Wynette - D I V O R C E
TTITLE14=Tammy Wynette - Stand by your man
TTITLE15=Dolly Parton - Wings Of A Dove (w/Tammy Wynet
TTITLE16=Conway Twitty and Loretta Lynn - Louisiana Woman  Mississippi Man
TTITLE17=Loretta Lynn - Coal Miner's Daughter
TTITLE18=Loretta Lynn - She's Got You
TTITLE19=Loretta Lynn and Conway Twitty - Back Street Affair
TTITLE20=Loretta Lynn - Why Can't He Be You
TTITLE21=Loretta Lynn - Don't Come Home A Drinkin' (Wi
TTITLE22=Dolly Parton - Jolene
EXTD=YEAR: 2003
EXTT0=
EXTT1=
EXTT2=
EXTT3=
EXTT4=
EXTT5=
EXTT6=
EXTT7=
EXTT8=
EXTT9=
EXTT10=
EXTT11=
EXTT12=
EXTT13=
EXTT14=
EXTT15=
EXTT16=
EXTT17=
EXTT18=
EXTT19=
EXTT20=
EXTT21=
EXTT22=
PLAYORDER=
